<svg width="48" height="48" viewBox="0 0 48 48" fill="none" xmlns="http://www.w3.org/2000/svg">
<path d="M27 11C29.2 11 31 9.2 31 7C31 4.8 29.2 3 27 3C24.8 3 23 4.8 23 7C23 9.2 24.8 11 27 11ZM35 21.56C32.54 20.82 30.56 19.22 29.4 17.2L27.4 14C26.58 12.7 25.18 12 23.72 12C22.16 12 20.54 13 20.16 14.88C19.78 16.76 14 46 14 46H18.2L21.8 30L26 34V46H30V31L25.8 27L27 21C29 23.3 31.82 25.02 35 25.68V46H38V18H35V21.56ZM14.86 26.26L10.62 25.44C9.54003 25.22 8.82003 24.18 9.04003 23.1L10.56 15.24C10.98 13.08 13.08 11.66 15.24 12.08L17.56 12.54L14.86 26.26Z" fill="white"/>
</svg>
