<svg width="48" height="48" viewBox="0 0 48 48" fill="none" xmlns="http://www.w3.org/2000/svg">
<path d="M42 46C39.94 46 37.88 45.5 36 44.5C32.22 46.5 27.78 46.5 24 44.5C20.22 46.5 15.78 46.5 12 44.5C10.1 45.5 8.06 46 6 46H4V42H6C8.08 42 10.16 41.3 12 40C15.66 42.6 20.34 42.6 24 40C27.66 42.6 32.34 42.6 36 40C37.82 41.3 39.92 42 42 42H44V46H42ZM24 11C21.8 11 20 12.8 20 15C20 17.2 21.8 19 24 19C26.2 19 28 17.2 28 15C28 12.8 26.2 11 24 11ZM48 35C48 35 44.96 36.42 40.14 37.74C38.5 37.28 37.08 36.24 36 35C34.54 36.68 32.4 38 30 38C27.6 38 25.46 36.68 24 35C22.54 36.68 20.4 38 18 38C15.6 38 13.46 36.68 12 35C10.92 36.22 9.5 37.26 7.86 37.74C3.04 36.42 0 35 0 35C0 35 5.86 32.28 14.26 30.84L16.96 22.5C17.58 20.6 19.6 19.56 21.5 20.18C21.68 20.24 21.88 20.32 22.04 20.4L26.98 23L32.66 20L35.96 12.58L34.94 9.94L37.6 4L44 6.86L41.34 12.8L38.72 13.8L31.28 30.48C40.98 31.74 48 35 48 35ZM30.04 25.92L27 27.52L23.5 25.68L22.08 30.02C22.72 30.02 23.36 30 24 30C25.42 30 26.8 30.06 28.14 30.16L30.04 25.92Z" fill="#F8F9FA"/>
</svg>
