<svg width="48" height="48" viewBox="0 0 48 48" fill="none" xmlns="http://www.w3.org/2000/svg">
<path d="M22 27V4L6 27H22ZM18 23H13.66L18 16.76V23ZM42 27C42 13 29 2 25 2C25 2 27 8 27 15C27 22 25 27 25 27H42ZM30.76 10.48C33.6 13.52 36.52 17.92 37.58 23H30.22C30.64 20.8 31 18.08 31 15C31 13.42 30.9 11.9 30.76 10.48ZM44 30H4C4.62 33.06 6.32 35.68 8.66 37.46C9.96 36.92 11.1 36.02 12 35C13.46 36.68 15.6 38 18 38C20.4 38 22.54 36.68 24 35C25.46 36.68 27.6 38 30 38C32.4 38 34.52 36.68 36 35C36.9 36.02 38.04 36.92 39.34 37.46C41.68 35.68 43.38 33.06 44 30ZM44 46V42H42C39.92 42 37.84 41.3 36 40C32.34 42.6 27.66 42.6 24 40C20.34 42.6 15.66 42.6 12 40C10.18 41.3 8.08 42 6 42H4V46H6C8.06 46 10.1 45.5 12 44.5C15.78 46.5 20.22 46.5 24 44.5C27.78 46.5 32.22 46.5 36 44.5C37.9 45.5 39.94 46 42 46H44Z" fill="#F8F9FA"/>
</svg>
